<svg width="489" height="613" viewBox="0 0 489 613" fill="none" xmlns="http://www.w3.org/2000/svg">
<path d="M67.2676 344.178C98.0105 325.111 176.015 301.958 242.089 361.883C268.702 336.914 342.026 298.417 422.417 344.178" stroke="#FF9B4F" stroke-width="45" stroke-linecap="round" stroke-linejoin="round"/>
<path d="M35.79 227.474C71.9233 208.742 163.605 185.995 241.264 244.869C272.544 220.338 358.724 182.516 453.21 227.474" stroke="#FF9B4F" stroke-width="45" stroke-linecap="round" stroke-linejoin="round"/>
<path d="M65.3248 359.277L245.186 582.91L420.929 359.277C442.897 329.093 458 297.263 458 235.798C458 174.333 422.302 119.636 404.453 99.9713C378.367 68.4156 318.779 30 245.186 30C171.594 30 124.363 55.1407 81.8006 99.9713C64.8671 117.807 31 169.943 31 235.798C31 301.653 43.3569 323.605 65.3248 359.277Z" stroke="#FF9B4F" stroke-width="45" stroke-linecap="round" stroke-linejoin="round"/>
</svg>
